<svg width="14" height="24" viewBox="0 0 14 24" fill="none" xmlns="http://www.w3.org/2000/svg">
<path d="M7.73341 10.5333C4.70675 9.74667 3.73341 8.93333 3.73341 7.66667C3.73341 6.21333 5.08008 5.2 7.33341 5.2C9.22675 5.2 10.1734 5.92 10.5201 7.06667C10.6801 7.6 11.1201 8 11.6801 8H12.0801C12.9601 8 13.5867 7.13333 13.2801 6.30667C12.7201 4.73333 11.4134 3.42667 9.33341 2.92V2C9.33341 0.893333 8.44008 0 7.33341 0C6.22675 0 5.33341 0.893333 5.33341 2V2.88C2.74675 3.44 0.666748 5.12 0.666748 7.69333C0.666748 10.7733 3.21341 12.3067 6.93341 13.2C10.2667 14 10.9334 15.1733 10.9334 16.4133C10.9334 17.3333 10.2801 18.8 7.33341 18.8C5.13341 18.8 4.00008 18.0133 3.56008 16.8933C3.36008 16.3733 2.90675 16 2.36008 16H1.98675C1.09341 16 0.466748 16.9067 0.800081 17.7333C1.56008 19.5867 3.33341 20.68 5.33341 21.1067V22C5.33341 23.1067 6.22675 24 7.33341 24C8.44008 24 9.33341 23.1067 9.33341 22V21.1333C11.9334 20.64 14.0001 19.1333 14.0001 16.4C14.0001 12.6133 10.7601 11.32 7.73341 10.5333Z" fill="#424242"/>
</svg>
