<svg width="24" height="24" viewBox="0 0 24 24" fill="none" xmlns="http://www.w3.org/2000/svg">
<path d="M17.1333 1.13333L19.0667 3.06667L16.16 5.94667C15.64 6.46667 15.64 7.32 16.16 7.84C16.68 8.36 17.5333 8.36 18.0533 7.84L20.9333 4.93333L22.8667 6.86667C23.28 7.28 24 6.98667 24 6.38667V0.666667C24 0.293333 23.7067 0 23.3333 0H17.6133C17.0133 0 16.72 0.72 17.1333 1.13333ZM1.13333 6.86667L3.06667 4.93333L5.94667 7.84C6.46667 8.36 7.32 8.36 7.84 7.84C8.36 7.32 8.36 6.46667 7.84 5.94667L4.93333 3.06667L6.86667 1.13333C7.28 0.72 6.98667 0 6.38667 0H0.666667C0.293333 0 0 0.293333 0 0.666667V6.38667C0 6.98667 0.72 7.28 1.13333 6.86667ZM6.86667 22.8667L4.93333 20.9333L7.84 18.0533C8.36 17.5333 8.36 16.68 7.84 16.16C7.32 15.64 6.46667 15.64 5.94667 16.16L3.06667 19.0667L1.13333 17.1333C0.72 16.72 0 17.0133 0 17.6133V23.3333C0 23.7067 0.293333 24 0.666667 24H6.38667C6.98667 24 7.28 23.28 6.86667 22.8667ZM22.8667 17.1333L20.9333 19.0667L18.0533 16.16C17.5333 15.64 16.68 15.64 16.16 16.16C15.64 16.68 15.64 17.5333 16.16 18.0533L19.0667 20.9333L17.1333 22.8667C16.72 23.28 17.0133 24 17.6133 24H23.3333C23.7067 24 24 23.7067 24 23.3333V17.6133C24 17.0133 23.28 16.72 22.8667 17.1333Z" fill="#424242"/>
</svg>
