<svg width="28" height="29" viewBox="0 0 28 29" fill="none" xmlns="http://www.w3.org/2000/svg">
<path d="M26.8934 23.2266L20.6 16.9333C19.96 16.2933 19.28 16.1466 18.4934 16.1466L15.1067 19.5333C15.1067 20.3199 15.2534 21.0133 15.8934 21.6399L22.1867 27.9333C22.7067 28.4533 23.5467 28.4533 24.0667 27.9333L26.8934 25.1066C27.4134 24.5999 27.4134 23.7466 26.8934 23.2266Z" fill="#424242"/>
<path d="M20.1733 11.6533C20.6933 12.1733 21.5333 12.1733 22.0533 11.6533L23 10.7066L25.8267 13.5333C27.3867 11.9733 27.3867 9.43997 25.8267 7.87997L22.0533 4.10663C21.5333 3.58663 20.6933 3.58663 20.1733 4.10663L19.2267 5.0533V1.66663C19.2267 0.839968 18.2133 0.399968 17.6133 0.999968L14.2267 4.38663C13.6267 4.98663 14.0667 5.99997 14.8933 5.99997H18.28L17.3333 6.94663C16.8133 7.46663 16.8133 8.30663 17.3333 8.82663L17.8 9.2933L13.9467 13.1466L8.46666 7.63997V6.30663C8.46666 5.94663 8.32 5.6133 8.08 5.35997L5.38666 2.6533C4.86666 2.1333 4.02666 2.1333 3.50666 2.6533L1.61333 4.54663C1.09333 5.06663 1.09333 5.90663 1.61333 6.42663L4.30666 9.1333C4.56 9.38663 4.89333 9.51997 5.25333 9.51997H6.58666L12.0933 15.0266L10.96 16.16H9.22666C8.52 16.16 7.84 16.44 7.34666 16.9466L1.05333 23.24C0.53333 23.76 0.53333 24.6 1.05333 25.12L3.88 27.9466C4.4 28.4666 5.24 28.4666 5.76 27.9466L12.0533 21.6533C12.56 21.1466 12.84 20.48 12.84 19.7733V18.0533L19.7067 11.1866L20.1733 11.6533Z" fill="#424242"/>
</svg>
