<svg width="24" height="24" viewBox="0 0 24 24" fill="none" xmlns="http://www.w3.org/2000/svg">
<path d="M22.6667 21.3333H21.3333V2.66667C21.3333 1.93333 20.7333 1.33333 20 1.33333H14.6667C14.6667 0.6 14.0667 0 13.3333 0H4C3.26667 0 2.66667 0.6 2.66667 1.33333V21.3333H1.33333C0.6 21.3333 0 21.9333 0 22.6667C0 23.4 0.6 24 1.33333 24H13.3333C14.0667 24 14.6667 23.4 14.6667 22.6667V4H18.6667V22.6667C18.6667 23.4 19.2667 24 20 24H22.6667C23.4 24 24 23.4 24 22.6667C24 21.9333 23.4 21.3333 22.6667 21.3333ZM12 13.3333H9.33333V10.6667H12V13.3333Z" fill="#212121"/>
</svg>
