<svg width="23" height="28" viewBox="0 0 23 28" fill="none" xmlns="http://www.w3.org/2000/svg">
<path d="M18.9999 3.33329V1.99996C18.9999 1.26663 18.3999 0.666626 17.6666 0.666626H1.66659C0.933252 0.666626 0.333252 1.26663 0.333252 1.99996V7.33329C0.333252 8.06663 0.933252 8.66663 1.66659 8.66663H17.6666C18.3999 8.66663 18.9999 8.06663 18.9999 7.33329V5.99996H20.3333V11.3333H8.33325C7.59992 11.3333 6.99992 11.9333 6.99992 12.6666V26C6.99992 26.7333 7.59992 27.3333 8.33325 27.3333H10.9999C11.7333 27.3333 12.3333 26.7333 12.3333 26V14H21.6666C22.3999 14 22.9999 13.4 22.9999 12.6666V4.66663C22.9999 3.93329 22.3999 3.33329 21.6666 3.33329H18.9999Z" fill="#424242"/>
</svg>
