<svg width="24" height="24" viewBox="0 0 24 24" fill="none" xmlns="http://www.w3.org/2000/svg">
<path d="M21.3333 0H2.66667C1.2 0 0 1.2 0 2.66667V21.3333C0 22.8 1.2 24 2.66667 24H21.3333C22.8 24 24 22.8 24 21.3333V2.66667C24 1.2 22.8 0 21.3333 0ZM18.6667 6.66667H16.7733V11.1067H13.3333V15.5467H9.89333L9.93333 20H5.33333C4.6 20 4 19.4 4 18.6667C4 17.9333 4.6 17.3333 5.33333 17.3333H7.22667V12.8933H10.6667V8.44H14.1067V4H18.6667C19.4 4 20 4.6 20 5.33333C20 6.06667 19.4 6.66667 18.6667 6.66667Z" fill="#424242"/>
</svg>
