<svg width="29" height="28" viewBox="0 0 29 28" fill="none" xmlns="http://www.w3.org/2000/svg">
<path d="M12.3335 8.66663C11.7868 8.66663 11.3335 9.11996 11.3335 9.66663V15.92C11.3335 16.3866 11.5735 16.8133 11.9602 17.0533L16.8135 20.04C17.2535 20.3066 17.8268 20.1866 18.1068 19.76C18.4135 19.3066 18.2668 18.6933 17.8002 18.4133L13.3335 15.7333V9.66663C13.3335 9.11996 12.8802 8.66663 12.3335 8.66663Z" fill="#424242"/>
<path d="M21.8934 13.9999C21.9601 14.4399 22.0001 14.8799 22.0001 15.3333C22.0001 20.5333 17.8667 24.6666 12.6667 24.6666C7.46675 24.6666 3.33341 20.5333 3.33341 15.3333C3.33341 10.1333 7.46675 5.99992 12.6667 5.99992C13.6001 5.99992 14.4934 6.13325 15.3334 6.38659V3.63992C14.4801 3.43992 13.5867 3.33325 12.6667 3.33325C6.00008 3.33325 0.666748 8.66659 0.666748 15.3333C0.666748 21.9999 6.00008 27.3333 12.6667 27.3333C19.3334 27.3333 24.6667 21.9999 24.6667 15.3333C24.6667 14.8799 24.6401 14.4399 24.5867 13.9999H21.8934Z" fill="#424242"/>
<path d="M27.3333 4.66663H24.6667V1.99996C24.6667 1.26663 24.0667 0.666626 23.3333 0.666626C22.6 0.666626 22 1.26663 22 1.99996V4.66663H19.3333C18.6 4.66663 18 5.26663 18 5.99996C18 6.73329 18.6 7.33329 19.3333 7.33329H22V9.99996C22 10.7333 22.6 11.3333 23.3333 11.3333C24.0667 11.3333 24.6667 10.7333 24.6667 9.99996V7.33329H27.3333C28.0667 7.33329 28.6667 6.73329 28.6667 5.99996C28.6667 5.26663 28.0667 4.66663 27.3333 4.66663Z" fill="#424242"/>
</svg>
