<svg width="22" height="29" viewBox="0 0 22 29" fill="none" xmlns="http://www.w3.org/2000/svg">
<path d="M20.9733 15.4667C18.8799 10.0267 11.4266 9.73336 13.2266 1.82669C13.3599 1.24002 12.7333 0.786691 12.2266 1.09336C7.38658 3.94669 3.90658 9.66669 6.82658 17.16C7.06658 17.7734 6.34658 18.3467 5.82658 17.9467C3.41325 16.12 3.15992 13.4934 3.37325 11.6134C3.45325 10.92 2.54658 10.5867 2.15992 11.16C1.25325 12.5467 0.333252 14.7867 0.333252 18.16C0.839919 25.6267 7.14659 27.92 9.41325 28.2134C12.6533 28.6267 16.1599 28.0267 18.6799 25.72C21.4533 23.1467 22.4666 19.04 20.9733 15.4667ZM8.59992 22.1734C10.5199 21.7067 11.5066 20.32 11.7733 19.0934C12.2133 17.1867 10.4933 15.32 11.6533 12.3067C12.0933 14.8 16.0133 16.36 16.0133 19.08C16.1199 22.4534 12.4666 25.3467 8.59992 22.1734Z" fill="#424242"/>
<path d="M20.9733 15.4667C18.8799 10.0267 11.4266 9.73336 13.2266 1.82669C13.3599 1.24002 12.7333 0.786691 12.2266 1.09336C7.38658 3.94669 3.90658 9.66669 6.82658 17.16C7.06658 17.7734 6.34658 18.3467 5.82658 17.9467C3.41325 16.12 3.15992 13.4934 3.37325 11.6134C3.45325 10.92 2.54658 10.5867 2.15992 11.16C1.25325 12.5467 0.333252 14.7867 0.333252 18.16C0.839919 25.6267 7.14659 27.92 9.41325 28.2134C12.6533 28.6267 16.1599 28.0267 18.6799 25.72C21.4533 23.1467 22.4666 19.04 20.9733 15.4667ZM8.59992 22.1734C10.5199 21.7067 11.5066 20.32 11.7733 19.0934C12.2133 17.1867 10.4933 15.32 11.6533 12.3067C12.0933 14.8 16.0133 16.36 16.0133 19.08C16.1199 22.4534 12.4666 25.3467 8.59992 22.1734Z" fill="#424242"/>
</svg>
