<svg width="26" height="23" viewBox="0 0 26 23" fill="none" xmlns="http://www.w3.org/2000/svg">
<path d="M14.3333 20H11.6667V17.3334H14.3333V20ZM9.00001 16V21.3334C9.00001 22.0667 9.60001 22.6667 10.3333 22.6667H15.6667C16.4 22.6667 17 22.0667 17 21.3334V16C17 15.2667 16.4 14.6667 15.6667 14.6667H10.3333C9.60001 14.6667 9.00001 15.2667 9.00001 16ZM22.3333 8.40002V2.66669C22.3333 1.93336 21.7333 1.33336 21 1.33336H19.6667C18.9333 1.33336 18.3333 1.93336 18.3333 2.66669V4.80002L13.8933 0.800022C13.3867 0.346689 12.6133 0.346689 12.1067 0.800022L0.960009 10.84C0.506675 11.24 0.786675 12 1.40001 12H3.14668C3.48001 12 3.80001 11.88 4.04001 11.6534L13 3.58669L21.9467 11.6534C22.2 11.88 22.52 12 22.84 12H24.5867C25.2 12 25.4933 11.24 25.0267 10.84L22.3333 8.40002Z" fill="#424242"/>
</svg>
