<svg width="28" height="30" viewBox="0 0 28 30" fill="none" xmlns="http://www.w3.org/2000/svg">
<path d="M24.6667 3.00004H23.3334V1.66671C23.3334 0.933374 22.7334 0.333374 22.0001 0.333374C21.2667 0.333374 20.6667 0.933374 20.6667 1.66671V3.00004H7.33341V1.66671C7.33341 0.933374 6.73341 0.333374 6.00008 0.333374C5.26675 0.333374 4.66675 0.933374 4.66675 1.66671V3.00004H3.33341C1.86675 3.00004 0.666748 4.20004 0.666748 5.66671V27C0.666748 28.4667 1.86675 29.6667 3.33341 29.6667H24.6667C26.1334 29.6667 27.3334 28.4667 27.3334 27V5.66671C27.3334 4.20004 26.1334 3.00004 24.6667 3.00004ZM23.3334 27H4.66675C3.93341 27 3.33341 26.4 3.33341 25.6667V9.66671H24.6667V25.6667C24.6667 26.4 24.0667 27 23.3334 27Z" fill="#424242"/>
</svg>
