<svg width="203" height="25" viewBox="0 0 203 25" fill="none" xmlns="http://www.w3.org/2000/svg">
<path d="M15.1875 17.7969C15.1875 19.8281 14.4531 21.4219 12.9844 22.5781C11.5156 23.7344 9.48958 24.3125 6.90625 24.3125C4.32292 24.3125 2.20833 23.9115 0.5625 23.1094V19.5781C1.60417 20.0677 2.70833 20.4531 3.875 20.7344C5.05208 21.0156 6.14583 21.1562 7.15625 21.1562C8.63542 21.1562 9.72396 20.875 10.4219 20.3125C11.1302 19.75 11.4844 18.9948 11.4844 18.0469C11.4844 17.1927 11.1615 16.4688 10.5156 15.875C9.86979 15.2812 8.53646 14.5781 6.51562 13.7656C4.43229 12.9219 2.96354 11.9583 2.10938 10.875C1.25521 9.79167 0.828125 8.48958 0.828125 6.96875C0.828125 5.0625 1.50521 3.5625 2.85938 2.46875C4.21354 1.375 6.03125 0.828125 8.3125 0.828125C10.5 0.828125 12.6771 1.30729 14.8438 2.26562L13.6562 5.3125C11.625 4.45833 9.8125 4.03125 8.21875 4.03125C7.01042 4.03125 6.09375 4.29688 5.46875 4.82812C4.84375 5.34896 4.53125 6.04167 4.53125 6.90625C4.53125 7.5 4.65625 8.01042 4.90625 8.4375C5.15625 8.85417 5.56771 9.25 6.14062 9.625C6.71354 10 7.74479 10.4948 9.23438 11.1094C10.9115 11.8073 12.1406 12.4583 12.9219 13.0625C13.7031 13.6667 14.276 14.349 14.6406 15.1094C15.0052 15.8698 15.1875 16.7656 15.1875 17.7969ZM27.0156 24.3125C24.3281 24.3125 22.224 23.5312 20.7031 21.9688C19.1927 20.3958 18.4375 18.2344 18.4375 15.4844C18.4375 12.6615 19.1406 10.4427 20.5469 8.82812C21.9531 7.21354 23.8854 6.40625 26.3438 6.40625C28.625 6.40625 30.4271 7.09896 31.75 8.48438C33.0729 9.86979 33.7344 11.776 33.7344 14.2031V16.1875H22.2188C22.2708 17.8646 22.724 19.1562 23.5781 20.0625C24.4323 20.9583 25.6354 21.4062 27.1875 21.4062C28.2083 21.4062 29.1562 21.3125 30.0312 21.125C30.9167 20.9271 31.8646 20.6042 32.875 20.1562V23.1406C31.9792 23.5677 31.0729 23.8698 30.1562 24.0469C29.2396 24.224 28.1927 24.3125 27.0156 24.3125ZM26.3438 9.1875C25.1771 9.1875 24.2396 9.55729 23.5312 10.2969C22.8333 11.0365 22.4167 12.1146 22.2812 13.5312H30.125C30.1042 12.1042 29.7604 11.026 29.0938 10.2969C28.4271 9.55729 27.5104 9.1875 26.3438 9.1875ZM46.9219 6.40625C47.6615 6.40625 48.2708 6.45833 48.75 6.5625L48.3906 9.98438C47.8698 9.85938 47.3281 9.79688 46.7656 9.79688C45.2969 9.79688 44.1042 10.276 43.1875 11.2344C42.2812 12.1927 41.8281 13.4375 41.8281 14.9688V24H38.1562V6.71875H41.0312L41.5156 9.76562H41.7031C42.276 8.73438 43.0208 7.91667 43.9375 7.3125C44.8646 6.70833 45.8594 6.40625 46.9219 6.40625ZM56.1562 24L49.5938 6.71875H53.4688L56.9844 16.7656C57.5885 18.4531 57.9531 19.8177 58.0781 20.8594H58.2031C58.2969 20.1094 58.6615 18.7448 59.2969 16.7656L62.8125 6.71875H66.7188L60.125 24H56.1562ZM73.2656 24H69.5938V6.71875H73.2656V24ZM69.375 2.14062C69.375 1.48438 69.5521 0.979167 69.9062 0.625C70.2708 0.270833 70.7865 0.09375 71.4531 0.09375C72.099 0.09375 72.599 0.270833 72.9531 0.625C73.3177 0.979167 73.5 1.48438 73.5 2.14062C73.5 2.76562 73.3177 3.26042 72.9531 3.625C72.599 3.97917 72.099 4.15625 71.4531 4.15625C70.7865 4.15625 70.2708 3.97917 69.9062 3.625C69.5521 3.26042 69.375 2.76562 69.375 2.14062ZM85.75 24.3125C83.1354 24.3125 81.1458 23.5521 79.7812 22.0312C78.4271 20.5 77.75 18.3073 77.75 15.4531C77.75 12.5469 78.4583 10.3125 79.875 8.75C81.3021 7.1875 83.3594 6.40625 86.0469 6.40625C87.8698 6.40625 89.5104 6.74479 90.9688 7.42188L89.8594 10.375C88.3073 9.77083 87.026 9.46875 86.0156 9.46875C83.026 9.46875 81.5312 11.4531 81.5312 15.4219C81.5312 17.3594 81.901 18.8177 82.6406 19.7969C83.3906 20.7656 84.4844 21.25 85.9219 21.25C87.5573 21.25 89.1042 20.8438 90.5625 20.0312V23.2344C89.9062 23.6198 89.2031 23.8958 88.4531 24.0625C87.7135 24.2292 86.8125 24.3125 85.75 24.3125ZM102.422 24.3125C99.7344 24.3125 97.6302 23.5312 96.1094 21.9688C94.599 20.3958 93.8438 18.2344 93.8438 15.4844C93.8438 12.6615 94.5469 10.4427 95.9531 8.82812C97.3594 7.21354 99.2917 6.40625 101.75 6.40625C104.031 6.40625 105.833 7.09896 107.156 8.48438C108.479 9.86979 109.141 11.776 109.141 14.2031V16.1875H97.625C97.6771 17.8646 98.1302 19.1562 98.9844 20.0625C99.8385 20.9583 101.042 21.4062 102.594 21.4062C103.615 21.4062 104.562 21.3125 105.438 21.125C106.323 20.9271 107.271 20.6042 108.281 20.1562V23.1406C107.385 23.5677 106.479 23.8698 105.562 24.0469C104.646 24.224 103.599 24.3125 102.422 24.3125ZM101.75 9.1875C100.583 9.1875 99.6458 9.55729 98.9375 10.2969C98.2396 11.0365 97.8229 12.1146 97.6875 13.5312H105.531C105.51 12.1042 105.167 11.026 104.5 10.2969C103.833 9.55729 102.917 9.1875 101.75 9.1875Z" fill="#FAFAFA"/>
<path d="M132.984 24H128.406L117.172 5.79688H117.047L117.125 6.8125C117.271 8.75 117.344 10.5208 117.344 12.125V24H113.953V1.15625H118.484L129.688 19.2656H129.781C129.76 19.026 129.719 18.1562 129.656 16.6562C129.594 15.1458 129.562 13.9688 129.562 13.125V1.15625H132.984V24ZM149.688 24L148.953 21.5938H148.828C147.995 22.6458 147.156 23.3646 146.312 23.75C145.469 24.125 144.385 24.3125 143.062 24.3125C141.365 24.3125 140.036 23.8542 139.078 22.9375C138.13 22.0208 137.656 20.724 137.656 19.0469C137.656 17.2656 138.318 15.9219 139.641 15.0156C140.964 14.1094 142.979 13.6146 145.688 13.5312L148.672 13.4375V12.5156C148.672 11.4115 148.411 10.5885 147.891 10.0469C147.38 9.49479 146.583 9.21875 145.5 9.21875C144.615 9.21875 143.766 9.34896 142.953 9.60938C142.141 9.86979 141.359 10.1771 140.609 10.5312L139.422 7.90625C140.359 7.41667 141.385 7.04688 142.5 6.79688C143.615 6.53646 144.667 6.40625 145.656 6.40625C147.854 6.40625 149.51 6.88542 150.625 7.84375C151.75 8.80208 152.312 10.3073 152.312 12.3594V24H149.688ZM144.219 21.5C145.552 21.5 146.62 21.1302 147.422 20.3906C148.234 19.6406 148.641 18.5938 148.641 17.25V15.75L146.422 15.8438C144.693 15.9062 143.432 16.1979 142.641 16.7188C141.859 17.2292 141.469 18.0156 141.469 19.0781C141.469 19.849 141.698 20.4479 142.156 20.875C142.615 21.2917 143.302 21.5 144.219 21.5ZM172.25 24H168.562V13.3438C168.562 12.0208 168.312 11.0365 167.812 10.3906C167.312 9.73438 166.531 9.40625 165.469 9.40625C164.052 9.40625 163.01 9.86979 162.344 10.7969C161.688 11.7135 161.359 13.2448 161.359 15.3906V24H157.688V6.71875H160.562L161.078 8.98438H161.266C161.745 8.16146 162.438 7.52604 163.344 7.07812C164.26 6.63021 165.266 6.40625 166.359 6.40625C169.016 6.40625 170.776 7.3125 171.641 9.125H171.891C172.401 8.27083 173.12 7.60417 174.047 7.125C174.974 6.64583 176.036 6.40625 177.234 6.40625C179.297 6.40625 180.797 6.92708 181.734 7.96875C182.682 9.01042 183.156 10.599 183.156 12.7344V24H179.484V13.3438C179.484 12.0208 179.229 11.0365 178.719 10.3906C178.219 9.73438 177.438 9.40625 176.375 9.40625C174.948 9.40625 173.901 9.85417 173.234 10.75C172.578 11.6354 172.25 13 172.25 14.8438V24ZM196.078 24.3125C193.391 24.3125 191.286 23.5312 189.766 21.9688C188.255 20.3958 187.5 18.2344 187.5 15.4844C187.5 12.6615 188.203 10.4427 189.609 8.82812C191.016 7.21354 192.948 6.40625 195.406 6.40625C197.688 6.40625 199.49 7.09896 200.812 8.48438C202.135 9.86979 202.797 11.776 202.797 14.2031V16.1875H191.281C191.333 17.8646 191.786 19.1562 192.641 20.0625C193.495 20.9583 194.698 21.4062 196.25 21.4062C197.271 21.4062 198.219 21.3125 199.094 21.125C199.979 20.9271 200.927 20.6042 201.938 20.1562V23.1406C201.042 23.5677 200.135 23.8698 199.219 24.0469C198.302 24.224 197.255 24.3125 196.078 24.3125ZM195.406 9.1875C194.24 9.1875 193.302 9.55729 192.594 10.2969C191.896 11.0365 191.479 12.1146 191.344 13.5312H199.188C199.167 12.1042 198.823 11.026 198.156 10.2969C197.49 9.55729 196.573 9.1875 195.406 9.1875Z" fill="#FF9800"/>
</svg>
